<svg t="1773153853499" class="icon" viewBox="0 0 1024 1024" version="1.1" xmlns="http://www.w3.org/2000/svg" p-id="12577" width="32" height="32"><path d="M333.248 85.312c-155.328 0-247.936 92.608-247.936 247.936v357.12c0 155.712 92.608 248.32 247.936 248.32h357.12c155.264 0 247.872-92.608 247.872-247.936V333.248c0.448-155.328-92.16-247.936-247.488-247.936H333.248z m304.64 466.816a72.832 72.832 0 0 1-49.92 28.16c-20.096 2.56-39.68-3.008-55.488-15.36l-78.08-61.44a9.344 9.344 0 0 0-8.128-2.176c-1.664 0-4.672 0.896-7.232 4.288L337.472 637.44a32.128 32.128 0 0 1-25.152 12.352 31.36 31.36 0 0 1-19.648-6.784 32 32 0 0 1-5.952-44.8l101.568-131.84a75.008 75.008 0 0 1 105.344-13.248l78.08 61.44c3.008 2.56 6.016 2.56 8.128 2.112 1.728 0 4.672-0.832 7.232-4.224l98.56-127.168a31.552 31.552 0 0 1 44.8-5.568c14.08 11.52 16.64 31.616 6.016 45.248l-98.56 127.168z" fill="#435EBE" p-id="12578"></path></svg>